<svg width="25" height="20" viewBox="0 0 25 20" fill="none" xmlns="http://www.w3.org/2000/svg">
<g clip-path="url(#clip0_418_368)">
<path d="M20.8 2.4502C19.2 1.7502 17.6 1.2502 15.8 0.950195C15.6 1.3502 15.4 1.7502 15.2 2.2502C13.4 1.9502 11.5 1.9502 9.70003 2.2502C9.60003 1.7502 9.30003 1.3502 9.10003 0.950195C7.40003 1.2502 5.70003 1.7502 4.10003 2.4502C1.00003 7.0502 0.100034 11.6502 0.500034 16.0502C2.30003 17.4502 4.40003 18.4502 6.60003 19.0502C7.10003 18.3502 7.50003 17.6502 7.90003 16.9502C7.20003 16.6502 6.50003 16.3502 5.90003 15.9502C6.10003 15.8502 6.20003 15.6502 6.40003 15.5502C10.2 17.3502 14.7 17.3502 18.5 15.5502C18.7 15.6502 18.8 15.8502 19 15.9502C18.3 16.3502 17.7 16.6502 16.9 16.9502C17.3 17.6502 17.7 18.3502 18.2 19.0502C20.4 18.3502 22.4 17.3502 24.3 16.0502C24.9 10.8502 23.5 6.3502 20.8 2.4502ZM8.50003 13.3502C7.30003 13.3502 6.30003 12.2502 6.30003 10.9502C6.30003 9.6502 7.20003 8.5502 8.50003 8.5502C9.80003 8.5502 10.7 9.6502 10.7 10.9502C10.7 12.2502 9.70003 13.3502 8.50003 13.3502ZM16.5 13.3502C15.3 13.3502 14.3 12.2502 14.3 10.9502C14.3 9.6502 15.2 8.5502 16.5 8.5502C17.8 8.5502 18.7 9.6502 18.7 10.9502C18.6 12.2502 17.7 13.3502 16.5 13.3502Z" stroke="white" stroke-miterlimit="10"/>
</g>
<defs>
<clipPath id="clip0_418_368">
<rect width="25" height="19.3" fill="white" transform="translate(0 0.350098)"/>
</clipPath>
</defs>
</svg>
