<svg width="29" height="28" viewBox="0 0 29 28" fill="none" xmlns="http://www.w3.org/2000/svg">
	<path fill-rule="evenodd" clip-rule="evenodd" d="M0.217651 14C0.217651 6.26801 6.48566 0 14.2177 0C21.9496 0 28.2177 6.26801 28.2177 14C28.2177 21.732 21.9496 28 14.2177 28C6.48566 28 0.217651 21.732 0.217651 14ZM11.9665 10.2294L7.48419 8.01474C7.44584 7.99577 7.40928 7.98682 7.37626 7.98682C7.3292 7.98682 7.28941 8.00511 7.2614 8.03848C7.23399 8.07112 7.21793 8.11831 7.21793 8.17734V17.6848C7.21793 17.8466 7.33775 18.0382 7.48419 18.1105L11.6264 20.1571C11.684 20.1856 11.7388 20.199 11.7883 20.199C11.9279 20.199 12.0258 20.0923 12.0258 19.9132V10.3241C12.0258 10.284 12.0028 10.2473 11.9665 10.2294ZM21.2411 20.1542L17.216 18.1656L21.6405 11.061V19.9103C21.6405 20.153 21.4607 20.2628 21.2411 20.1542ZM12.45 10.9425V15.8149L16.833 17.9804L12.45 10.9425ZM16.9662 7.9487L21.5351 10.2061C21.592 10.2342 21.6122 10.3045 21.5789 10.358L17.0825 17.5781L13.9389 12.5302L16.755 8.00817C16.7849 7.96015 16.8403 7.93257 16.8958 7.93257C16.8966 7.93257 16.8974 7.9327 16.8982 7.93282C16.8989 7.93293 16.8995 7.93304 16.9002 7.93307C16.9228 7.93366 16.9454 7.93842 16.9662 7.9487Z" fill="white"/>
</svg>