<svg width="80" height="80" viewBox="0 0 80 80" fill="none" xmlns="http://www.w3.org/2000/svg">
<path d="M40 80.0005L70 30.0005L40 30.0005L40 80.0005Z" fill="url(#paint0_linear_243_2770)"/>
<path d="M40 80.0005L55.5 30.0005L40 30.0005L40 80.0005Z" fill="url(#paint1_linear_243_2770)"/>
<path d="M40 0.000485571L10 30.0005L40 30.0005L40 0.000485571Z" fill="url(#paint2_linear_243_2770)"/>
<path d="M40 -0.000488281L24 29.9995L40 29.9995L40 -0.000488281Z" fill="url(#paint3_linear_243_2770)"/>
<path d="M40 80.0005L10 30.0005L40 30.0005L40 80.0005Z" fill="url(#paint4_linear_243_2770)"/>
<path d="M40 80.0005L23.9999 30.0005L40 30.0005L40 80.0005Z" fill="url(#paint5_linear_243_2770)"/>
<path d="M40 -0.000490904L70 29.9995L40 29.9995L40 -0.000490904Z" fill="url(#paint6_linear_243_2770)"/>
<path d="M40 -0.00048968L56.0001 29.9995L40 29.9995L40 -0.00048968Z" fill="url(#paint7_linear_243_2770)"/>
<defs>
<linearGradient id="paint0_linear_243_2770" x1="42.5" y1="94.5005" x2="70" y2="30.0005" gradientUnits="userSpaceOnUse">
<stop stop-color="#54FFC1"/>
<stop offset="1" stop-color="#1230CC"/>
</linearGradient>
<linearGradient id="paint1_linear_243_2770" x1="45.5" y1="70.9995" x2="53.5" y2="27.9995" gradientUnits="userSpaceOnUse">
<stop stop-color="#C63FDC"/>
<stop offset="1" stop-color="#1230CC"/>
</linearGradient>
<linearGradient id="paint2_linear_243_2770" x1="37.5" y1="-8.69952" x2="26.5189" y2="34.2263" gradientUnits="userSpaceOnUse">
<stop stop-color="#54FFC1"/>
<stop offset="1" stop-color="#1230CC"/>
<stop offset="1" stop-color="#1230CC"/>
</linearGradient>
<linearGradient id="paint3_linear_243_2770" x1="37.5" y1="3.99951" x2="43.8701" y2="32.8815" gradientUnits="userSpaceOnUse">
<stop stop-color="#C63FDC"/>
<stop offset="1" stop-color="#1230CC"/>
</linearGradient>
<linearGradient id="paint4_linear_243_2770" x1="40" y1="78.5005" x2="22.5" y2="34.5005" gradientUnits="userSpaceOnUse">
<stop stop-color="#1230CC"/>
<stop offset="1" stop-color="#C63FDC"/>
</linearGradient>
<linearGradient id="paint5_linear_243_2770" x1="37.4999" y1="94.5005" x2="9.99994" y2="30.0005" gradientUnits="userSpaceOnUse">
<stop stop-color="#54FFC1"/>
<stop offset="1" stop-color="#1230CC"/>
</linearGradient>
<linearGradient id="paint6_linear_243_2770" x1="40" y1="0.899506" x2="46.9035" y2="29.8282" gradientUnits="userSpaceOnUse">
<stop stop-color="#1230CC"/>
<stop offset="1" stop-color="#C63FDC"/>
</linearGradient>
<linearGradient id="paint7_linear_243_2770" x1="42.5001" y1="-8.70049" x2="53.4811" y2="34.2253" gradientUnits="userSpaceOnUse">
<stop stop-color="#54FFC1"/>
<stop offset="1" stop-color="#1230CC"/>
</linearGradient>
</defs>
</svg>
