<svg width="29" height="28" viewBox="0 0 29 28" fill="none" xmlns="http://www.w3.org/2000/svg">
						<path fill-rule="evenodd" clip-rule="evenodd" d="M14.2177 0C6.48566 0 0.217651 6.26801 0.217651 14C0.217651 21.732 6.48566 28 14.2177 28C21.9496 28 28.2177 21.732 28.2177 14C28.2177 6.26801 21.9496 0 14.2177 0ZM13.828 11.8625L13.7986 11.3781C13.7105 10.1225 14.4841 8.97571 15.7082 8.53083C16.1587 8.37265 16.9225 8.35287 17.4219 8.49128C17.6178 8.5506 17.9899 8.74833 18.2543 8.92628L18.7342 9.25253L19.263 9.08446C19.5567 8.99549 19.9485 8.84719 20.1247 8.74833C20.2912 8.65935 20.4381 8.60992 20.4381 8.63958C20.4381 8.80764 20.0758 9.38105 19.7722 9.69742C19.3609 10.1423 19.4784 10.1818 20.3108 9.88526C20.8102 9.71719 20.82 9.71719 20.7221 9.90503C20.6633 10.0039 20.3597 10.3499 20.0366 10.6663C19.4882 11.21 19.4588 11.2693 19.4588 11.7241C19.4588 12.4261 19.1259 13.8892 18.7929 14.69C18.176 16.1928 16.854 17.7449 15.5319 18.5259C13.6713 19.6233 11.1938 19.9001 9.10792 19.2575C8.41264 19.04 7.21793 18.4864 7.21793 18.3875C7.21793 18.3579 7.58026 18.3183 8.02093 18.3084C8.94144 18.2887 9.86196 18.0316 10.6454 17.5768L11.1742 17.2605L10.567 17.0529C9.70528 16.7563 8.93165 16.0741 8.7358 15.4315C8.67704 15.2239 8.69663 15.214 9.24502 15.214L9.81299 15.2041L9.33315 14.9767C8.76517 14.69 8.24616 14.2056 7.99155 13.7113C7.80549 13.3554 7.57046 12.4557 7.63901 12.3865C7.6586 12.3568 7.86425 12.4162 8.09927 12.4953C8.77497 12.7424 8.8631 12.6831 8.47139 12.2679C7.73694 11.5165 7.51171 10.3993 7.86425 9.34151L8.03072 8.86696L8.67704 9.50958C9.99906 10.8047 11.5561 11.5758 13.3384 11.8032L13.828 11.8625Z" fill="white"/>
					</svg>